<svg id="Layer_1" data-name="Layer 1" xmlns="http://www.w3.org/2000/svg" xmlns:xlink="http://www.w3.org/1999/xlink" viewBox="0 0 407.84 254.65"><defs><style>.cls-1,.cls-2,.cls-3{stroke-miterlimit:10;}.cls-1,.cls-2{stroke-width:3.75px;}.cls-1{fill:url(#linear-gradient);stroke:url(#New_Gradient_Swatch_1);}.cls-2{fill:url(#linear-gradient-2);stroke:url(#New_Gradient_Swatch_1-2);}.cls-3{stroke-width:3.38px;fill:url(#linear-gradient-3);stroke:url(#linear-gradient-4);}.cls-4{font-size:103px;fill:#757575;font-family:Roboto-Light, Roboto;font-weight:300;}</style><linearGradient id="linear-gradient" x1="41.26" y1="118.19" x2="134.8" y2="118.19" gradientUnits="userSpaceOnUse"><stop offset="0.01" stop-color="#0088fd"/><stop offset="1" stop-color="#01e2fe"/></linearGradient><linearGradient id="New_Gradient_Swatch_1" x1="39.39" y1="118.19" x2="136.68" y2="118.19" xlink:href="#linear-gradient"/><linearGradient id="linear-gradient-2" x1="64.57" y1="178.01" x2="96.49" y2="178.01" xlink:href="#linear-gradient"/><linearGradient id="New_Gradient_Swatch_1-2" x1="62.7" y1="178.01" x2="98.36" y2="178.01" xlink:href="#linear-gradient"/><linearGradient id="linear-gradient-3" x1="7.27" y1="62.56" x2="59.86" y2="62.56" gradientUnits="userSpaceOnUse"><stop offset="0" stop-color="#01e2fe"/><stop offset="0.99" stop-color="#0088fd"/></linearGradient><linearGradient id="linear-gradient-4" x1="5.58" y1="62.56" x2="61.55" y2="62.56" xlink:href="#linear-gradient-3"/></defs><path class="cls-1" d="M134.52,9.65c-.29-3.59-7-3.62-6.71,0a82.47,82.47,0,0,1-10.69,47.5C109.94,70,100.15,81.59,90.2,93c-9.82,11.23-19.94,22.34-28.3,34.4C52.67,140.71,46.35,155,43.55,170.3c-3.43,18.7-2.46,37.65-.61,56.43.35,3.58,7.07,3.62,6.71,0-1.65-16.81-2.68-33.8-.32-50.6a104.48,104.48,0,0,1,17.35-44.41C83.2,107.27,107.3,86.89,122,61.53,131.45,45.35,136,27.66,134.52,9.65Z" transform="translate(-5.58 -5.07)"/><path class="cls-2" d="M93.18,127.41c-20.38,19.36-30,47.55-28.46,75.34a120.47,120.47,0,0,0,4,24.88c.68,2.5,4.64,1.7,4-.81-7.18-26.5-5.15-55.59,9.38-79.31a83.78,83.78,0,0,1,13.76-17.06C97.72,128.66,95.07,125.62,93.18,127.41Z" transform="translate(-5.58 -5.07)"/><path class="cls-3" d="M13.11,10.88c-2.74-2.92-7.79,1.31-5,4.24a169.43,169.43,0,0,1,45.18,97.82c.41,3.88,7,2.41,6.6-1.45C55.86,74.2,39.39,39,13.11,10.88Z" transform="translate(-5.58 -5.07)"/><text class="cls-4" transform="translate(90.9 204.51)">ungul</text></svg>